<svg xmlns="http://www.w3.org/2000/svg" width="32" height="32" fill="currentColor" viewBox="0 0 32 36"><rect width="24" height="24" fill="none"></rect><path d="M2.10377 10.1821V25.8195L0 27.0039V8.99774L2.10377 10.1821Z" fill="#FCFDFD"></path><path d="M32 8.99747L29.8962 10.1819L15.9977 2.36756V0L32 8.99747Z" fill="#FCFDFD"></path><path d="M32 27.0038L15.9977 36V33.6337L29.8962 25.8194L32 27.0038Z" fill="#FCFDFD"></path><path d="M15.9959 33.6227V35.989L0 26.9928L2.10377 25.8084L15.9959 33.6227Z" fill="#7E8086"></path><path d="M31.9995 8.99774V27.0039L29.8958 25.8195V10.1821L31.9995 8.99774Z" fill="#7E8086"></path><path d="M15.9959 0V2.36756L2.10377 10.1819L0 8.99747L15.9959 0Z" fill="#7E8086"></path><path fill-rule="evenodd" clip-rule="evenodd" d="M15.9476 9.06158L21.9934 10.8459C22.1962 10.9049 22.3117 11.1149 22.2512 11.3125C22.1906 11.5102 21.9751 11.6227 21.7722 11.5637L15.9476 9.84942L10.1385 11.5637C9.93563 11.6241 9.72011 11.5116 9.65954 11.3139C9.59897 11.1163 9.71307 10.9063 9.91591 10.8472L15.9476 9.06296V9.06158Z" fill="#FCFDFD" stroke="#FCFDFD" stroke-width="0.617123" stroke-linejoin="round"></path><path fill-rule="evenodd" clip-rule="evenodd" d="M24.6694 11.8861C24.6314 11.6761 24.4257 11.5347 24.2088 11.5718C24.0876 11.5924 23.982 11.6679 23.9256 11.7749L20.4224 18.4317H11.4904L7.98856 11.7749C7.91391 11.6363 7.76178 11.5553 7.6026 11.5663C7.4223 11.58 7.27299 11.7118 7.242 11.8861C6.92506 14.041 7.04056 16.2356 7.58288 18.3466C8.44214 21.6777 10.6128 25.54 15.7796 27.9955L15.9486 28.0751L16.1177 27.9955C21.2817 25.54 23.458 21.6819 24.3172 18.3493C24.8652 16.237 24.9835 14.0423 24.6694 11.8861ZM8.32945 18.1654C7.91954 16.539 7.76318 14.8631 7.86883 13.1914L10.9143 18.9752L15.0429 26.7684C10.8903 24.4297 9.08306 21.0862 8.33086 18.1654H8.32945ZM15.9486 26.8453L11.889 19.1811H20.0266L15.9486 26.8453ZM23.5749 18.1654C22.8185 21.0834 21.0084 24.4269 16.8572 26.7657L20.9985 18.9752L24.0468 13.1941C24.1482 14.8645 23.9904 16.5404 23.5763 18.1654H23.5749Z" fill="#FCFDFD" stroke="#FCFDFD" stroke-width="0.617123" stroke-linejoin="round"></path></svg>